<svg width="46" height="50" viewBox="0 0 46 50" fill="none" xmlns="http://www.w3.org/2000/svg" xmlns:xlink="http://www.w3.org/1999/xlink">
<path d="M42,11.5L34.5,11.5C34.5,4.596 28.904,-1 22,-1C15.096,-1 9.5,4.596 9.5,11.5L2,11.5C0.619,11.5 -0.5,12.619 -0.5,14L-0.5,44C-0.5,46.761 1.739,49 4.5,49L39.5,49C42.261,49 44.5,46.761 44.5,44L44.5,14C44.5,12.619 43.381,11.5 42,11.5ZM14.5,20.25C14.5,20.94 13.94,21.5 13.25,21.5L10.75,21.5C10.06,21.5 9.5,20.94 9.5,20.25L9.5,17.75C9.5,17.06 10.06,16.5 10.75,16.5L13.25,16.5C13.94,16.5 14.5,17.06 14.5,17.75L14.5,20.25ZM22,4C26.142,4 29.5,7.358 29.5,11.5L14.5,11.5C14.5,7.358 17.858,4 22,4ZM34.5,20.25C34.5,20.94 33.94,21.5 33.25,21.5L30.75,21.5C30.06,21.5 29.5,20.94 29.5,20.25L29.5,17.75C29.5,17.06 30.06,16.5 30.75,16.5L33.25,16.5C33.94,16.5 34.5,17.06 34.5,17.75L34.5,20.25Z" fill="#333333"/>
</svg>
