<svg width="30" height="34" viewBox="0 0 30 34" fill="none" xmlns="http://www.w3.org/2000/svg" xmlns:xlink="http://www.w3.org/1999/xlink">
<path d="M27.333,7.667L22.333,7.667C22.333,3.064 18.602,-0.667 14,-0.667C9.398,-0.667 5.667,3.064 5.667,7.667L0.667,7.667C-0.254,7.667 -1,8.413 -1,9.333L-1,29.333C-1,31.174 0.492,32.667 2.333,32.667L25.667,32.667C27.508,32.667 29,31.174 29,29.333L29,9.333C29,8.413 28.254,7.667 27.333,7.667ZM9,13.5C9,13.96 8.627,14.333 8.167,14.333L6.5,14.333C6.04,14.333 5.667,13.96 5.667,13.5L5.667,11.833C5.667,11.373 6.04,11 6.5,11L8.167,11C8.627,11 9,11.373 9,11.833L9,13.5ZM14,2.667C16.761,2.667 19,4.905 19,7.667L9,7.667C9,4.905 11.239,2.667 14,2.667ZM22.333,13.5C22.333,13.96 21.96,14.333 21.5,14.333L19.833,14.333C19.373,14.333 19,13.96 19,13.5L19,11.833C19,11.373 19.373,11 19.833,11L21.5,11C21.96,11 22.333,11.373 22.333,11.833L22.333,13.5Z" fill="#333333"/>
</svg>
