<svg width="46" height="52" viewBox="0 0 46 52" fill="none" xmlns="http://www.w3.org/2000/svg" xmlns:xlink="http://www.w3.org/1999/xlink">
<path d="M42,13.5L34.5,13.5C34.5,6.596 28.904,1 22,1C15.096,1 9.5,6.596 9.5,13.5L2,13.5C0.619,13.5 -0.5,14.619 -0.5,16L-0.5,46C-0.5,48.761 1.739,51 4.5,51L39.5,51C42.261,51 44.5,48.761 44.5,46L44.5,16C44.5,14.619 43.381,13.5 42,13.5ZM14.5,22.25C14.5,22.94 13.94,23.5 13.25,23.5L10.75,23.5C10.06,23.5 9.5,22.94 9.5,22.25L9.5,19.75C9.5,19.06 10.06,18.5 10.75,18.5L13.25,18.5C13.94,18.5 14.5,19.06 14.5,19.75L14.5,22.25ZM22,6C26.142,6 29.5,9.358 29.5,13.5L14.5,13.5C14.5,9.358 17.858,6 22,6ZM34.5,22.25C34.5,22.94 33.94,23.5 33.25,23.5L30.75,23.5C30.06,23.5 29.5,22.94 29.5,22.25L29.5,19.75C29.5,19.06 30.06,18.5 30.75,18.5L33.25,18.5C33.94,18.5 34.5,19.06 34.5,19.75L34.5,22.25Z" fill="#333333"/>
</svg>
