<svg width="60" height="60" viewBox="0 0 60 60" fill="none" xmlns="http://www.w3.org/2000/svg" xmlns:xlink="http://www.w3.org/1999/xlink">
<path d="M39.375,17.25C38.547,17.25 37.875,17.922 37.875,18.75C37.875,19.578 38.547,20.25 39.375,20.25L39.375,17.25ZM46.375,19.75L47.63,18.929C47.574,18.843 47.509,18.762 47.436,18.689L46.375,19.75ZM50.625,26.25L49.37,27.071C49.551,27.348 49.819,27.558 50.132,27.667L50.625,26.25ZM56.375,28.25L55.882,29.667C55.925,29.681 55.968,29.694 56.011,29.705L56.375,28.25ZM48.155,42.25C47.326,42.25 46.655,42.922 46.655,43.75C46.655,44.578 47.326,45.25 48.155,45.25L48.155,42.25ZM39.375,20.25L44.375,20.25L44.375,17.25L39.375,17.25L39.375,20.25ZM44.375,20.25C44.423,20.25 44.549,20.27 44.75,20.379C44.946,20.486 45.146,20.642 45.314,20.811L47.436,18.689C46.838,18.092 45.724,17.25 44.375,17.25L44.375,20.25ZM45.12,20.571L49.37,27.071L51.88,25.429L47.63,18.929L45.12,20.571ZM50.132,27.667L55.882,29.667L56.868,26.833L51.118,24.833L50.132,27.667ZM56.011,29.705C56.326,29.784 56.625,30.17 56.625,30.5L59.625,30.5C59.625,28.83 58.424,27.216 56.739,26.795L56.011,29.705ZM56.625,30.5L56.625,41.25L59.625,41.25L59.625,30.5L56.625,30.5ZM56.625,41.25C56.625,41.771 56.201,42.25 55.625,42.25L55.625,45.25C58.049,45.25 59.625,43.229 59.625,41.25L56.625,41.25ZM55.625,42.25L48.155,42.25L48.155,45.25L55.625,45.25L55.625,42.25Z" fill="#000000"/>
<path d="M43.125,50.25C46.715,50.25 49.625,47.34 49.625,43.75L46.625,43.75C46.625,45.683 45.058,47.25 43.125,47.25L43.125,50.25ZM49.625,43.75C49.625,40.16 46.715,37.25 43.125,37.25L43.125,40.25C45.058,40.25 46.625,41.817 46.625,43.75L49.625,43.75ZM43.125,37.25C39.535,37.25 36.625,40.16 36.625,43.75L39.625,43.75C39.625,41.817 41.192,40.25 43.125,40.25L43.125,37.25ZM36.625,43.75C36.625,47.34 39.535,50.25 43.125,50.25L43.125,47.25C41.192,47.25 39.625,45.683 39.625,43.75L36.625,43.75Z" fill="#000000"/>
<path d="M37.875,40.478C37.875,41.306 38.547,41.978 39.375,41.978C40.203,41.978 40.875,41.306 40.875,40.478L37.875,40.478ZM8.118,45.25C8.947,45.25 9.618,44.578 9.618,43.75C9.618,42.922 8.947,42.25 8.118,42.25L8.118,45.25ZM38.111,45.25C38.939,45.25 39.611,44.578 39.611,43.75C39.611,42.922 38.939,42.25 38.111,42.25L38.111,45.25ZM28.119,42.25C27.29,42.25 26.619,42.922 26.619,43.75C26.619,44.578 27.29,45.25 28.119,45.25L28.119,42.25ZM40.875,40.478L40.875,13.75L37.875,13.75L37.875,40.478L40.875,40.478ZM40.875,13.75C40.875,12.659 40.505,11.634 39.748,10.877C38.991,10.12 37.966,9.75 36.875,9.75L36.875,12.75C37.284,12.75 37.509,12.88 37.627,12.998C37.745,13.116 37.875,13.341 37.875,13.75L40.875,13.75ZM36.875,9.75L4.375,9.75L4.375,12.75L36.875,12.75L36.875,9.75ZM4.375,9.75C3.284,9.75 2.259,10.12 1.502,10.877C0.745,11.634 0.375,12.659 0.375,13.75L3.375,13.75C3.375,13.341 3.505,13.116 3.623,12.998C3.741,12.88 3.966,12.75 4.375,12.75L4.375,9.75ZM0.375,13.75L0.375,41.25L3.375,41.25L3.375,13.75L0.375,13.75ZM0.375,41.25C0.375,43.229 1.951,45.25 4.375,45.25L4.375,42.25C3.799,42.25 3.375,41.771 3.375,41.25L0.375,41.25ZM4.375,45.25L8.118,45.25L8.118,42.25L4.375,42.25L4.375,45.25ZM38.111,42.25L28.119,42.25L28.119,45.25L38.111,45.25L38.111,42.25Z" fill="#000000"/>
<path d="M13.125,50.25C16.715,50.25 19.625,47.34 19.625,43.75L16.625,43.75C16.625,45.683 15.058,47.25 13.125,47.25L13.125,50.25ZM19.625,43.75C19.625,40.16 16.715,37.25 13.125,37.25L13.125,40.25C15.058,40.25 16.625,41.817 16.625,43.75L19.625,43.75ZM13.125,37.25C9.535,37.25 6.625,40.16 6.625,43.75L9.625,43.75C9.625,41.817 11.192,40.25 13.125,40.25L13.125,37.25ZM6.625,43.75C6.625,47.34 9.535,50.25 13.125,50.25L13.125,47.25C11.192,47.25 9.625,45.683 9.625,43.75L6.625,43.75Z" fill="#000000"/>
<path d="M23.125,50.25C26.715,50.25 29.625,47.34 29.625,43.75L26.625,43.75C26.625,45.683 25.058,47.25 23.125,47.25L23.125,50.25ZM29.625,43.75C29.625,40.16 26.715,37.25 23.125,37.25L23.125,40.25C25.058,40.25 26.625,41.817 26.625,43.75L29.625,43.75ZM23.125,37.25C19.535,37.25 16.625,40.16 16.625,43.75L19.625,43.75C19.625,41.817 21.192,40.25 23.125,40.25L23.125,37.25ZM16.625,43.75C16.625,47.34 19.535,50.25 23.125,50.25L23.125,47.25C21.192,47.25 19.625,45.683 19.625,43.75L16.625,43.75Z" fill="#000000"/>
<line x1="11.625" y1="11.25" x2="11.625" y2="28.75" stroke="#000000" stroke-width="1.5" stroke-miterlimit="10" stroke-linecap="round" stroke-linejoin="round"/>
<line x1="24.125" y1="11.25" x2="24.125" y2="28.75" stroke="#000000" stroke-width="1.5" stroke-miterlimit="10" stroke-linecap="round" stroke-linejoin="round"/>
</svg>
