<svg width="44" height="34" viewBox="0 0 44 34" fill="none" xmlns="http://www.w3.org/2000/svg" xmlns:xlink="http://www.w3.org/1999/xlink">
<path d="M22,0C9.9,0 0,7.266 0,16.146C0,19.86 1.76,23.412 5.06,26.318L0.66,29.547C-0.22,30.193 -0.22,31.162 0.66,31.808C1.1,32.131 1.54,32.292 2.2,32.292L22,32.292C34.1,32.292 44,25.026 44,16.146C44,7.266 34.1,0 22,0ZM13.2,17.761C11.88,17.761 11,17.115 11,16.146C11,15.177 11.88,14.531 13.2,14.531C14.52,14.531 15.4,15.177 15.4,16.146C15.4,17.115 14.52,17.761 13.2,17.761ZM22,17.761C20.68,17.761 19.8,17.115 19.8,16.146C19.8,15.177 20.68,14.531 22,14.531C23.32,14.531 24.2,15.177 24.2,16.146C24.2,17.115 23.32,17.761 22,17.761ZM30.8,17.761C29.48,17.761 28.6,17.115 28.6,16.146C28.6,15.177 29.48,14.531 30.8,14.531C32.12,14.531 33,15.177 33,16.146C33,17.115 32.12,17.761 30.8,17.761Z" fill="#FFFFFF"/>
</svg>
