<svg width="68" height="68" viewBox="0 0 68 68" fill="none" xmlns="http://www.w3.org/2000/svg" xmlns:xlink="http://www.w3.org/1999/xlink">
<path d="M67.282,26.78C67.615,24.978 66.283,22.816 64.618,22.816L45.632,19.934L36.972,1.199C36.639,0.478 36.306,0.118 35.64,-0.242C33.975,-1.323 31.976,-0.602 30.977,1.199L22.65,19.934L3.665,22.816C2.665,22.816 1.999,23.177 1.666,23.897C0.334,25.338 0.334,27.5 1.666,28.941L15.322,43.353L11.992,63.889C11.992,64.61 11.992,65.33 12.325,66.051C13.324,67.852 15.322,68.573 16.988,67.492L33.975,57.764L50.962,67.492C51.295,67.852 51.961,67.852 52.627,67.852C52.96,67.852 52.96,67.852 53.293,67.852C54.958,67.492 56.291,65.691 55.958,63.529L52.627,42.993L66.283,28.581C66.949,28.221 67.282,27.5 67.282,26.78Z" stroke="#000000" stroke-width="1" stroke-miterlimit="3.999327"/>
</svg>
