<svg width="68" height="68" viewBox="0 0 68 68" fill="none" xmlns="http://www.w3.org/2000/svg" xmlns:xlink="http://www.w3.org/1999/xlink">
<path d="M66.615,26.78C66.948,24.978 65.616,22.816 63.951,22.816L44.965,19.934L36.305,1.199C35.972,0.478 35.639,0.118 34.973,-0.242C33.308,-1.323 31.309,-0.602 30.31,1.199L21.983,19.934L2.998,22.816C1.998,22.816 1.332,23.177 0.999,23.897C-0.333,25.338 -0.333,27.5 0.999,28.941L14.655,43.353L11.325,63.889C11.325,64.61 11.325,65.33 11.658,66.051C12.657,67.852 14.655,68.573 16.321,67.492L33.308,57.764L50.295,67.492C50.628,67.852 51.294,67.852 51.96,67.852C52.293,67.852 52.293,67.852 52.626,67.852C54.291,67.492 55.624,65.691 55.291,63.529L51.96,42.993L65.616,28.581C66.282,28.221 66.615,27.5 66.615,26.78Z" stroke="#000000" stroke-width="1" stroke-miterlimit="3.999327"/>
</svg>
