<svg width="20" height="16" viewBox="0 0 20 16" fill="none" xmlns="http://www.w3.org/2000/svg" xmlns:xlink="http://www.w3.org/1999/xlink">
<path d="M19.098,5.878C19.191,5.493 18.822,5.031 18.361,5.031L13.107,4.416L10.71,0.416C10.618,0.262 10.526,0.185 10.342,0.108C9.881,-0.122 9.328,0.032 9.051,0.416L6.747,4.416L1.493,5.031C1.216,5.031 1.032,5.108 0.94,5.262C0.571,5.57 0.571,6.031 0.94,6.339L4.719,9.416L3.797,13.801C3.797,13.954 3.797,14.108 3.889,14.262C4.166,14.647 4.719,14.801 5.18,14.57L9.881,12.493L14.582,14.57C14.674,14.647 14.858,14.647 15.043,14.647C15.135,14.647 15.135,14.647 15.227,14.647C15.688,14.57 16.057,14.185 15.964,13.724L15.043,9.339L18.822,6.262C19.006,6.185 19.098,6.031 19.098,5.878Z" fill="#000000"/>
</svg>
