<svg width="36" height="36" viewBox="0 0 36 36" fill="none" xmlns="http://www.w3.org/2000/svg" xmlns:xlink="http://www.w3.org/1999/xlink">
<path d="M3.513,14.663C3.513,7.982 9.06,2.548 15.877,2.548C22.693,2.548 28.24,7.982 28.24,14.663C28.24,21.344 22.693,26.78 15.877,26.78C9.06,26.78 3.513,21.344 3.513,14.663ZM36,32.668L27.922,24.772C30.304,22.05 31.753,18.523 31.753,14.663C31.753,6.085 24.63,-0.895 15.877,-0.895C7.123,-0.895 0,6.085 0,14.663C0,23.243 7.123,30.223 15.877,30.223C19.429,30.223 22.701,29.06 25.348,27.12L33.52,35.105L36,32.668Z" clip-rule="evenodd" fill-rule="evenodd" fill="#888888"/>
</svg>
