<svg width="52" height="50" viewBox="0 0 52 50" fill="none" xmlns="http://www.w3.org/2000/svg" xmlns:xlink="http://www.w3.org/1999/xlink">
<path d="M17.58,46.74L2.807,29.456C1.626,27.998 0.978,26.057 1.001,24.048C1.024,22.039 1.716,20.12 2.93,18.699C4.144,17.277 5.784,16.466 7.502,16.438C9.219,16.41 10.879,17.166 12.126,18.547L21.524,29.54L39.124,2.089C39.644,1.278 40.295,0.595 41.04,0.078C41.785,-0.438 42.61,-0.778 43.468,-0.922C44.325,-1.066 45.198,-1.01 46.038,-0.759C46.877,-0.508 47.666,-0.066 48.359,0.541C49.052,1.149 49.636,1.91 50.078,2.782C50.52,3.654 50.81,4.619 50.933,5.622C51.056,6.625 51.009,7.647 50.794,8.628C50.58,9.61 50.202,10.533 49.682,11.344L27.521,45.914C26.954,46.799 26.231,47.53 25.402,48.059C24.572,48.588 23.655,48.902 22.712,48.981C21.769,49.059 20.823,48.9 19.938,48.513C19.053,48.127 18.249,47.522 17.58,46.74Z" fill="#FFFFFF"/>
</svg>
