<svg width="38" height="20" viewBox="0 0 38 20" fill="none" xmlns="http://www.w3.org/2000/svg" xmlns:xlink="http://www.w3.org/1999/xlink">
<path d="M3.061,0.939C2.475,0.354 1.525,0.354 0.939,0.939C0.354,1.525 0.354,2.475 0.939,3.061L3.061,0.939ZM17.44,17.44L16.379,18.501L16.382,18.503L17.44,17.44ZM19.56,17.44L20.618,18.503L20.621,18.501L19.56,17.44ZM36.061,3.061C36.646,2.475 36.646,1.525 36.061,0.939C35.475,0.354 34.525,0.354 33.939,0.939L36.061,3.061ZM0.939,3.061L16.379,18.501L18.501,16.379L3.061,0.939L0.939,3.061ZM16.382,18.503C16.944,19.063 17.706,19.378 18.5,19.378L18.5,16.378L18.498,16.377L16.382,18.503ZM18.5,19.378C19.294,19.378 20.056,19.063 20.618,18.503L18.502,16.377L18.5,16.378L18.5,19.378ZM20.621,18.501L36.061,3.061L33.939,0.939L18.499,16.379L20.621,18.501Z" fill="#000000"/>
</svg>
