<svg width="20" height="16" viewBox="0 0 20 16" fill="none" xmlns="http://www.w3.org/2000/svg" xmlns:xlink="http://www.w3.org/1999/xlink">
<path d="M18.21,5.878C18.303,5.493 17.934,5.031 17.473,5.031L12.219,4.416L9.822,0.416C9.73,0.262 9.638,0.185 9.454,0.108C8.993,-0.122 8.44,0.032 8.163,0.416L5.859,4.416L0.605,5.031C0.328,5.031 0.144,5.108 0.052,5.262C-0.317,5.57 -0.317,6.031 0.052,6.339L3.831,9.416L2.909,13.801C2.909,13.954 2.909,14.108 3.001,14.262C3.278,14.647 3.831,14.801 4.292,14.57L8.993,12.493L13.694,14.57C13.786,14.647 13.97,14.647 14.155,14.647C14.247,14.647 14.247,14.647 14.339,14.647C14.8,14.57 15.169,14.185 15.076,13.724L14.155,9.339L17.934,6.262C18.118,6.185 18.21,6.031 18.21,5.878Z" fill="#000000"/>
</svg>
