<svg width="20" height="16" viewBox="0 0 20 16" fill="none" xmlns="http://www.w3.org/2000/svg" xmlns:xlink="http://www.w3.org/1999/xlink">
<path d="M19.323,5.878C19.415,5.493 19.046,5.031 18.586,5.031L13.332,4.416L10.935,0.416C10.843,0.262 10.751,0.185 10.566,0.108C10.105,-0.122 9.552,0.032 9.276,0.416L6.971,4.416L1.717,5.031C1.441,5.031 1.256,5.108 1.164,5.262C0.796,5.57 0.796,6.031 1.164,6.339L4.943,9.416L4.022,13.801C4.022,13.954 4.022,14.108 4.114,14.262C4.39,14.647 4.943,14.801 5.404,14.57L10.105,12.493L14.806,14.57C14.899,14.647 15.083,14.647 15.267,14.647C15.359,14.647 15.359,14.647 15.452,14.647C15.912,14.57 16.281,14.185 16.189,13.724L15.267,9.339L19.046,6.262C19.231,6.185 19.323,6.031 19.323,5.878Z" fill="#000000"/>
</svg>
