<svg width="78" height="66" viewBox="0 0 78 66" fill="none" xmlns="http://www.w3.org/2000/svg" xmlns:xlink="http://www.w3.org/1999/xlink">
<path d="M38.017,0C17.107,0 0,14.572 0,32.381C0,39.829 3.041,46.953 8.744,52.782L1.14,59.258C-0.38,60.553 -0.38,62.496 1.14,63.791C1.901,64.439 2.661,64.763 3.802,64.763L38.017,64.763C58.926,64.763 76.033,50.191 76.033,32.381C76.033,14.572 58.926,0 38.017,0ZM22.81,35.62C20.529,35.62 19.008,34.324 19.008,32.381C19.008,30.439 20.529,29.143 22.81,29.143C25.091,29.143 26.612,30.439 26.612,32.381C26.612,34.324 25.091,35.62 22.81,35.62ZM38.017,35.62C35.736,35.62 34.215,34.324 34.215,32.381C34.215,30.439 35.736,29.143 38.017,29.143C40.298,29.143 41.818,30.439 41.818,32.381C41.818,34.324 40.298,35.62 38.017,35.62ZM53.223,35.62C50.942,35.62 49.421,34.324 49.421,32.381C49.421,30.439 50.942,29.143 53.223,29.143C55.504,29.143 57.025,30.439 57.025,32.381C57.025,34.324 55.504,35.62 53.223,35.62Z" fill="#FFFFFF"/>
</svg>
