<svg width="18" height="16" viewBox="0 0 18 16" fill="none" xmlns="http://www.w3.org/2000/svg" xmlns:xlink="http://www.w3.org/1999/xlink">
<path d="M17.986,5.878C18.078,5.493 17.709,5.031 17.248,5.031L11.994,4.416L9.598,0.416C9.506,0.262 9.413,0.185 9.229,0.108C8.768,-0.122 8.215,0.032 7.939,0.416L5.634,4.416L0.38,5.031C0.104,5.031 -0.081,5.108 -0.173,5.262C-0.542,5.57 -0.542,6.031 -0.173,6.339L3.606,9.416L2.685,13.801C2.685,13.954 2.685,14.108 2.777,14.262C3.053,14.647 3.606,14.801 4.067,14.57L8.768,12.493L13.469,14.57C13.561,14.647 13.746,14.647 13.93,14.647C14.022,14.647 14.022,14.647 14.114,14.647C14.575,14.57 14.944,14.185 14.852,13.724L13.93,9.339L17.709,6.262C17.894,6.185 17.986,6.031 17.986,5.878ZM12.271,8.57C12.087,8.724 11.994,9.031 11.994,9.262L12.64,12.493L9.137,10.954C9.045,10.878 8.86,10.878 8.676,10.878L8.676,2.493L10.427,5.416C10.52,5.647 10.796,5.801 11.165,5.801L15.036,6.262L12.271,8.57Z" fill="#000000"/>
</svg>
