<svg width="42" height="42" viewBox="0 0 42 42" fill="none" xmlns="http://www.w3.org/2000/svg" xmlns:xlink="http://www.w3.org/1999/xlink">
<path d="M13.427,40.246C16.95,40.246 20.278,39.006 22.823,36.763L31.045,29.327C31.632,28.796 31.632,27.852 31.045,27.32C30.458,26.789 29.414,26.789 28.826,27.32L20.604,34.698C18.712,36.409 16.167,37.354 13.427,37.354C10.686,37.354 8.206,36.409 6.249,34.698C4.291,32.986 3.312,30.685 3.312,28.206C3.312,25.727 4.356,23.484 6.249,21.714L24.846,4.893C26.216,3.654 27.978,3.005 29.936,3.005C31.828,3.005 33.655,3.654 35.025,4.893C36.396,6.133 37.113,7.726 37.113,9.497C37.113,11.208 36.396,12.861 35.025,14.1L16.363,30.98C14.732,32.455 11.991,32.455 10.36,30.98C9.577,30.271 9.12,29.268 9.12,28.265C9.12,27.261 9.577,26.258 10.36,25.55L18.647,18.054C19.234,17.523 19.234,16.579 18.647,16.048C18.06,15.517 17.015,15.517 16.428,16.048L8.206,23.543C6.836,24.783 6.053,26.494 6.053,28.265C6.053,30.035 6.836,31.747 8.206,32.986C11.077,35.583 15.776,35.583 18.647,32.986L37.244,16.166C39.202,14.395 40.246,12.094 40.246,9.556C40.246,7.018 39.202,4.716 37.244,2.946C33.264,-0.654 26.673,-0.654 22.693,2.946L4.095,19.766C1.616,22.009 0.246,25.019 0.246,28.265C0.246,31.452 1.616,34.462 4.095,36.763C6.575,39.006 9.903,40.246 13.427,40.246Z" transform="rotate(-96 20.246 20.246)" fill="#888888"/>
</svg>
