<svg width="36" height="42" viewBox="0 0 36 42" fill="none" xmlns="http://www.w3.org/2000/svg" xmlns:xlink="http://www.w3.org/1999/xlink">
<path d="M3.513,17.716C3.513,10.108 9.06,3.92 15.877,3.92C22.693,3.92 28.24,10.108 28.24,17.716C28.24,25.323 22.693,31.513 15.877,31.513C9.06,31.513 3.513,25.323 3.513,17.716ZM36,38.217L27.922,29.226C30.304,26.127 31.753,22.11 31.753,17.716C31.753,7.948 24.63,0 15.877,0C7.123,0 0,7.948 0,17.716C0,27.485 7.123,35.433 15.877,35.433C19.429,35.433 22.701,34.108 25.348,31.899L33.52,40.992L36,38.217Z" clip-rule="evenodd" fill-rule="evenodd" fill="#888888"/>
</svg>
