<svg width="66" height="68" viewBox="0 0 66 68" fill="none" xmlns="http://www.w3.org/2000/svg" xmlns:xlink="http://www.w3.org/1999/xlink">
<path d="M65.948,26.78C66.281,24.978 64.949,22.816 63.284,22.816L44.298,19.934L35.638,1.199C35.305,0.478 34.972,0.118 34.306,-0.242C32.641,-1.323 30.642,-0.602 29.643,1.199L21.316,19.934L2.331,22.816C1.331,22.816 0.665,23.177 0.332,23.897C-1,25.338 -1,27.5 0.332,28.941L13.988,43.353L10.658,63.889C10.658,64.61 10.658,65.33 10.991,66.051C11.99,67.852 13.988,68.573 15.654,67.492L32.641,57.764L49.628,67.492C49.961,67.852 50.627,67.852 51.293,67.852C51.626,67.852 51.626,67.852 51.959,67.852C53.624,67.492 54.957,65.691 54.624,63.529L51.293,42.993L64.949,28.581C65.615,28.221 65.948,27.5 65.948,26.78Z" stroke="#000000" stroke-width="1" stroke-miterlimit="3.999327"/>
</svg>
