<svg width="42" height="40" viewBox="0 0 42 40" fill="none" xmlns="http://www.w3.org/2000/svg" xmlns:xlink="http://www.w3.org/1999/xlink">
<path d="M40,15.768C40.2,14.793 39.4,13.623 38.4,13.623L27,12.062L21.8,1.92C21.6,1.53 21.4,1.335 21,1.14C20,0.555 18.8,0.945 18.2,1.92L13.2,12.062L1.8,13.623C1.2,13.623 0.8,13.818 0.6,14.208C-0.2,14.988 -0.2,16.158 0.6,16.939L8.8,24.74L6.8,35.858C6.8,36.248 6.8,36.638 7,37.028C7.6,38.004 8.8,38.394 9.8,37.809L20,32.542L30.2,37.809C30.4,38.004 30.8,38.004 31.2,38.004C31.4,38.004 31.4,38.004 31.6,38.004C32.6,37.809 33.4,36.833 33.2,35.663L31.2,24.545L39.4,16.743C39.8,16.548 40,16.158 40,15.768ZM27.6,22.595C27.2,22.985 27,23.765 27,24.35L28.4,32.542L20.8,28.641C20.6,28.446 20.2,28.446 19.8,28.446L19.8,7.186L23.6,14.598C23.8,15.183 24.4,15.573 25.2,15.573L33.6,16.743L27.6,22.595Z" fill="#000000"/>
</svg>
