<svg width="200" height="200" viewBox="0 0 200 200" fill="none" xmlns="http://www.w3.org/2000/svg" xmlns:xlink="http://www.w3.org/1999/xlink">
<path d="M66.322,190.962L7.228,121.826C2.503,115.991 -0.089,108.23 0.002,100.194C0.094,92.156 2.863,84.479 7.719,78.794C12.576,73.108 19.137,69.864 26.008,69.751C32.878,69.638 39.514,72.665 44.506,78.188L82.096,122.159L152.498,12.357C154.575,9.113 157.179,6.38 160.16,4.313C163.141,2.247 166.441,0.887 169.871,0.312C173.301,-0.263 176.793,-0.042 180.151,0.962C183.508,1.967 186.663,3.734 189.436,6.165C192.209,8.596 194.545,11.641 196.313,15.128C198.079,18.615 199.242,22.475 199.733,26.488C200.224,30.5 200.036,34.586 199.178,38.513C198.319,42.44 196.807,46.131 194.73,49.375L106.086,187.657C103.817,191.194 100.926,194.119 97.606,196.235C94.288,198.352 90.619,199.609 86.848,199.923C83.078,200.236 79.294,199.598 75.752,198.052C72.211,196.506 68.995,194.088 66.322,190.962Z" fill="#FFFFFF"/>
</svg>
