<svg width="36" height="38" viewBox="0 0 36 38" fill="none" xmlns="http://www.w3.org/2000/svg" xmlns:xlink="http://www.w3.org/1999/xlink">
<path d="M3.513,15.619C3.513,8.912 9.06,3.456 15.877,3.456C22.693,3.456 28.24,8.912 28.24,15.619C28.24,22.326 22.693,27.783 15.877,27.783C9.06,27.783 3.513,22.326 3.513,15.619ZM36,33.694L27.922,25.767C30.304,23.034 31.753,19.493 31.753,15.619C31.753,7.008 24.63,0 15.877,0C7.123,0 0,7.008 0,15.619C0,24.232 7.123,31.24 15.877,31.24C19.429,31.24 22.701,30.071 25.348,28.124L33.52,36.141L36,33.694Z" clip-rule="evenodd" fill-rule="evenodd" fill="#888888"/>
</svg>
