<svg width="42" height="38" viewBox="0 0 42 38" fill="none" xmlns="http://www.w3.org/2000/svg" xmlns:xlink="http://www.w3.org/1999/xlink">
<path d="M40,14.904C40.2,13.928 39.4,12.758 38.4,12.758L27,11.198L21.8,1.055C21.6,0.665 21.4,0.47 21,0.275C20,-0.31 18.8,0.08 18.2,1.055L13.2,11.198L1.8,12.758C1.2,12.758 0.8,12.953 0.6,13.343C-0.2,14.123 -0.2,15.294 0.6,16.074L8.8,23.876L6.8,34.993C6.8,35.383 6.8,35.774 7,36.164C7.6,37.139 8.8,37.529 9.8,36.944L20,31.678L30.2,36.944C30.4,37.139 30.8,37.139 31.2,37.139C31.4,37.139 31.4,37.139 31.6,37.139C32.6,36.944 33.4,35.969 33.2,34.798L31.2,23.681L39.4,15.879C39.8,15.684 40,15.294 40,14.904ZM27.6,21.73C27.2,22.12 27,22.9 27,23.486L28.4,31.678L20.8,27.777C20.6,27.582 20.2,27.582 19.8,27.582L19.8,6.321L23.6,13.733C23.8,14.318 24.4,14.708 25.2,14.708L33.6,15.879L27.6,21.73Z" fill="#000000"/>
</svg>
