<svg width="20" height="16" viewBox="0 0 20 16" fill="none" xmlns="http://www.w3.org/2000/svg" xmlns:xlink="http://www.w3.org/1999/xlink">
<path d="M18.435,5.878C18.527,5.493 18.159,5.031 17.698,5.031L12.444,4.416L10.047,0.416C9.955,0.262 9.863,0.185 9.679,0.108C9.218,-0.122 8.665,0.032 8.388,0.416L6.084,4.416L0.83,5.031C0.553,5.031 0.369,5.108 0.277,5.262C-0.092,5.57 -0.092,6.031 0.277,6.339L4.056,9.416L3.134,13.801C3.134,13.954 3.134,14.108 3.226,14.262C3.503,14.647 4.056,14.801 4.517,14.57L9.218,12.493L13.919,14.57C14.011,14.647 14.195,14.647 14.38,14.647C14.472,14.647 14.472,14.647 14.564,14.647C15.025,14.57 15.393,14.185 15.301,13.724L14.38,9.339L18.159,6.262C18.343,6.185 18.435,6.031 18.435,5.878Z" fill="#000000"/>
</svg>
