<svg width="40" height="40" viewBox="0 0 40 40" fill="none" xmlns="http://www.w3.org/2000/svg" xmlns:xlink="http://www.w3.org/1999/xlink">
<path d="M13.264,38.192L1.446,24.365C0.501,23.198 -0.018,21.646 0,20.039C0.019,18.431 0.573,16.896 1.544,15.759C2.515,14.622 3.827,13.973 5.202,13.95C6.576,13.928 7.903,14.533 8.901,15.638L16.419,24.432L30.5,2.471C30.915,1.823 31.436,1.276 32.032,0.863C32.628,0.449 33.288,0.177 33.974,0.062C34.66,-0.053 35.359,-0.008 36.03,0.192C36.702,0.393 37.333,0.747 37.887,1.233C38.442,1.719 38.909,2.328 39.263,3.026C39.616,3.723 39.848,4.495 39.947,5.298C40.045,6.1 40.007,6.917 39.836,7.703C39.664,8.488 39.361,9.226 38.946,9.875L21.217,37.531C20.763,38.239 20.185,38.824 19.521,39.247C18.858,39.67 18.124,39.922 17.37,39.985C16.616,40.047 15.859,39.92 15.15,39.61C14.442,39.301 13.799,38.818 13.264,38.192Z" fill="#FFFFFF"/>
</svg>
