<svg width="42" height="42" viewBox="0 0 42 42" fill="none" xmlns="http://www.w3.org/2000/svg" xmlns:xlink="http://www.w3.org/1999/xlink">
<path d="M13.323,40.582C16.9,40.582 20.279,39.327 22.862,37.056L31.209,29.528C31.805,28.99 31.805,28.034 31.209,27.497C30.613,26.959 29.553,26.959 28.957,27.497L20.61,34.965C18.689,36.698 16.105,37.654 13.323,37.654C10.54,37.654 8.023,36.698 6.036,34.965C4.048,33.233 3.055,30.902 3.055,28.393C3.055,25.883 4.115,23.613 6.036,21.821L24.916,4.792C26.307,3.538 28.096,2.88 30.083,2.88C32.004,2.88 33.859,3.538 35.25,4.792C36.641,6.047 37.37,7.66 37.37,9.453C37.37,11.185 36.641,12.858 35.25,14.113L16.304,31.201C14.648,32.695 11.865,32.695 10.209,31.201C9.414,30.484 8.951,29.468 8.951,28.453C8.951,27.437 9.414,26.421 10.209,25.704L18.622,18.116C19.219,17.579 19.219,16.623 18.622,16.085C18.026,15.547 16.966,15.547 16.37,16.085L8.023,23.673C6.632,24.928 5.837,26.66 5.837,28.453C5.837,30.245 6.632,31.978 8.023,33.233C10.938,35.861 15.708,35.861 18.622,33.233L37.503,16.204C39.49,14.412 40.55,12.082 40.55,9.513C40.55,6.943 39.49,4.613 37.503,2.821C33.462,-0.824 26.771,-0.824 22.73,2.821L3.85,19.849C1.332,22.119 -0.059,25.167 -0.059,28.453C-0.059,31.679 1.332,34.726 3.85,37.056C6.367,39.327 9.745,40.582 13.323,40.582Z" transform="rotate(-97.538 20.246 20.334)" fill="#888888"/>
</svg>
