<svg width="32" height="32" viewBox="0 0 32 32" fill="none" xmlns="http://www.w3.org/2000/svg" xmlns:xlink="http://www.w3.org/1999/xlink">
<path d="M3.123,13.829C3.123,7.891 8.053,3.06 14.113,3.06C20.171,3.06 25.102,7.891 25.102,13.829C25.102,19.768 20.171,24.6 14.113,24.6C8.053,24.6 3.123,19.768 3.123,13.829ZM32,29.833L24.819,22.815C26.937,20.395 28.225,17.26 28.225,13.829C28.225,6.205 21.893,0 14.113,0C6.331,0 0,6.205 0,13.829C0,21.456 6.331,27.66 14.113,27.66C17.27,27.66 20.179,26.626 22.532,24.902L29.795,32L32,29.833Z" clip-rule="evenodd" fill-rule="evenodd" fill="#000000"/>
</svg>
