<svg width="78" height="66" viewBox="0 0 78 66" fill="none" xmlns="http://www.w3.org/2000/svg" xmlns:xlink="http://www.w3.org/1999/xlink">
<path d="M38.017,0C17.107,0 0,14.629 0,32.508C0,39.985 3.041,47.137 8.744,52.988L1.14,59.49C-0.38,60.79 -0.38,62.74 1.14,64.041C1.901,64.691 2.661,65.016 3.802,65.016L38.017,65.016C58.926,65.016 76.033,50.387 76.033,32.508C76.033,14.629 58.926,0 38.017,0ZM22.81,35.759C20.529,35.759 19.008,34.458 19.008,32.508C19.008,30.557 20.529,29.257 22.81,29.257C25.091,29.257 26.612,30.557 26.612,32.508C26.612,34.458 25.091,35.759 22.81,35.759ZM38.017,35.759C35.736,35.759 34.215,34.458 34.215,32.508C34.215,30.557 35.736,29.257 38.017,29.257C40.298,29.257 41.818,30.557 41.818,32.508C41.818,34.458 40.298,35.759 38.017,35.759ZM53.223,35.759C50.942,35.759 49.421,34.458 49.421,32.508C49.421,30.557 50.942,29.257 53.223,29.257C55.504,29.257 57.025,30.557 57.025,32.508C57.025,34.458 55.504,35.759 53.223,35.759Z" fill="#FFFFFF"/>
</svg>
