<svg width="36" height="42" viewBox="0 0 36 42" fill="none" xmlns="http://www.w3.org/2000/svg" xmlns:xlink="http://www.w3.org/1999/xlink">
<path d="M3.513,17.582C3.513,10.163 9.06,4.128 15.877,4.128C22.693,4.128 28.24,10.163 28.24,17.582C28.24,25.001 22.693,31.037 15.877,31.037C9.06,31.037 3.513,25.001 3.513,17.582ZM36,37.575L27.922,28.807C30.304,25.784 31.753,21.868 31.753,17.582C31.753,8.056 24.63,0.305 15.877,0.305C7.123,0.305 0,8.056 0,17.582C0,27.109 7.123,34.861 15.877,34.861C19.429,34.861 22.701,33.568 25.348,31.414L33.52,40.282L36,37.575Z" clip-rule="evenodd" fill-rule="evenodd" fill="#888888"/>
</svg>
