<svg width="50" height="50" viewBox="0 0 50 50" fill="none" xmlns="http://www.w3.org/2000/svg" xmlns:xlink="http://www.w3.org/1999/xlink">
<path d="M49.961,20.021C50.211,18.711 49.212,17.139 47.963,17.139L33.724,15.043L27.229,1.417C26.979,0.893 26.729,0.631 26.23,0.369C24.981,-0.417 23.482,0.107 22.732,1.417L16.487,15.043L2.248,17.139C1.499,17.139 0.999,17.401 0.749,17.925C-0.25,18.973 -0.25,20.546 0.749,21.594L10.992,32.075L8.493,47.01C8.493,47.534 8.493,48.058 8.743,48.583C9.493,49.893 10.992,50.417 12.241,49.631L24.981,42.556L37.721,49.631C37.971,49.893 38.47,49.893 38.97,49.893C39.22,49.893 39.22,49.893 39.47,49.893C40.719,49.631 41.718,48.321 41.468,46.748L38.97,31.813L49.212,21.332C49.712,21.07 49.961,20.546 49.961,20.021Z" stroke="#000000" stroke-width="1" stroke-miterlimit="3.999327"/>
</svg>
