<svg width="100" height="100" viewBox="0 0 100 100" fill="none" xmlns="http://www.w3.org/2000/svg" xmlns:xlink="http://www.w3.org/1999/xlink">
<path d="M65.75,90.625C65.75,93.078 66.724,95.431 68.459,97.166L72.702,92.923C72.092,92.314 71.75,91.487 71.75,90.625L65.75,90.625ZM68.459,97.166C70.194,98.901 72.547,99.875 75,99.875L75,93.875C74.138,93.875 73.311,93.533 72.702,92.923L68.459,97.166ZM75,99.875C77.453,99.875 79.806,98.901 81.541,97.166L77.298,92.923C76.689,93.533 75.862,93.875 75,93.875L75,99.875ZM81.541,97.166C83.276,95.431 84.25,93.078 84.25,90.625L78.25,90.625C78.25,91.487 77.908,92.314 77.298,92.923L81.541,97.166ZM84.25,90.625C84.25,88.172 83.276,85.819 81.541,84.084L77.298,88.327C77.908,88.936 78.25,89.763 78.25,90.625L84.25,90.625ZM81.541,84.084C79.806,82.349 77.453,81.375 75,81.375L75,87.375C75.862,87.375 76.689,87.717 77.298,88.327L81.541,84.084ZM75,81.375C72.547,81.375 70.194,82.349 68.459,84.084L72.702,88.327C73.311,87.717 74.138,87.375 75,87.375L75,81.375ZM68.459,84.084C66.724,85.819 65.75,88.172 65.75,90.625L71.75,90.625C71.75,89.763 72.092,88.936 72.702,88.327L68.459,84.084Z" fill="#3DAE55"/>
<path d="M6.375,90.625C6.375,93.078 7.35,95.431 9.084,97.166L13.327,92.923C12.717,92.314 12.375,91.487 12.375,90.625L6.375,90.625ZM9.084,97.166C10.819,98.901 13.172,99.875 15.625,99.875L15.625,93.875C14.763,93.875 13.936,93.533 13.327,92.923L9.084,97.166ZM15.625,99.875C18.078,99.875 20.431,98.901 22.166,97.166L17.923,92.923C17.314,93.533 16.487,93.875 15.625,93.875L15.625,99.875ZM22.166,97.166C23.9,95.431 24.875,93.078 24.875,90.625L18.875,90.625C18.875,91.487 18.533,92.314 17.923,92.923L22.166,97.166ZM24.875,90.625C24.875,88.172 23.9,85.819 22.166,84.084L17.923,88.327C18.533,88.936 18.875,89.763 18.875,90.625L24.875,90.625ZM22.166,84.084C20.431,82.349 18.078,81.375 15.625,81.375L15.625,87.375C16.487,87.375 17.314,87.717 17.923,88.327L22.166,84.084ZM15.625,81.375C13.172,81.375 10.819,82.349 9.084,84.084L13.327,88.327C13.936,87.717 14.763,87.375 15.625,87.375L15.625,81.375ZM9.084,84.084C7.35,85.819 6.375,88.172 6.375,90.625L12.375,90.625C12.375,89.763 12.717,88.936 13.327,88.327L9.084,84.084Z" fill="#3DAE55"/>
<path d="M3.125,72C1.468,72 0.125,73.343 0.125,75C0.125,76.657 1.468,78 3.125,78L3.125,72ZM69.5,75L69.504,72L69.5,72L69.5,75ZM75.708,69.542L72.734,69.153L72.733,69.161L75.708,69.542ZM83.667,8.583L86.641,8.972L86.642,8.964L83.667,8.583ZM85.74,4.681L83.759,2.428L83.759,2.428L85.74,4.681ZM89.875,3.125L89.871,6.125L89.875,6.125L89.875,3.125ZM96.875,6.125C98.532,6.125 99.875,4.782 99.875,3.125C99.875,1.468 98.532,0.125 96.875,0.125L96.875,6.125ZM3.125,78L69.5,78L69.5,72L3.125,72L3.125,78ZM69.496,78C71.748,78.003 73.925,77.184 75.616,75.697L71.654,71.191C71.06,71.713 70.296,72.001 69.504,72L69.496,78ZM75.616,75.697C77.308,74.209 78.399,72.156 78.684,69.922L72.733,69.161C72.632,69.946 72.249,70.668 71.654,71.191L75.616,75.697ZM78.683,69.93L86.641,8.972L80.692,8.195L72.734,69.153L78.683,69.93ZM86.642,8.964C86.743,8.178 87.126,7.457 87.721,6.934L83.759,2.428C82.067,3.916 80.976,5.969 80.691,8.203L86.642,8.964ZM87.721,6.934C88.315,6.412 89.079,6.124 89.871,6.125L89.879,0.125C87.627,0.122 85.45,0.941 83.759,2.428L87.721,6.934ZM89.875,6.125L96.875,6.125L96.875,0.125L89.875,0.125L89.875,6.125Z" fill="#3DAE55"/>
<path d="M18.75,18.625L56.25,18.625L56.25,12.625L18.75,12.625L18.75,18.625ZM56.25,15.625C56.25,18.625 56.249,18.625 56.247,18.625C56.247,18.625 56.245,18.625 56.244,18.625C56.243,18.625 56.241,18.625 56.239,18.625C56.236,18.625 56.233,18.625 56.231,18.625C56.226,18.625 56.222,18.625 56.22,18.625C56.215,18.625 56.215,18.625 56.22,18.625C56.231,18.625 56.26,18.626 56.305,18.63C56.396,18.636 56.546,18.651 56.733,18.682C57.123,18.747 57.596,18.871 58.033,19.09C58.459,19.302 58.793,19.574 59.027,19.926C59.249,20.259 59.5,20.837 59.5,21.875L65.5,21.875C65.5,19.788 64.97,18.023 64.02,16.598C63.082,15.192 61.854,14.292 60.717,13.723C59.591,13.16 58.502,12.894 57.72,12.763C57.321,12.697 56.983,12.663 56.732,12.645C56.606,12.636 56.501,12.631 56.42,12.628C56.38,12.627 56.345,12.626 56.316,12.626C56.302,12.625 56.289,12.625 56.278,12.625C56.273,12.625 56.268,12.625 56.263,12.625C56.261,12.625 56.258,12.625 56.256,12.625C56.255,12.625 56.254,12.625 56.253,12.625C56.251,12.625 56.25,12.625 56.25,15.625ZM59.5,21.875L59.5,56.25L65.5,56.25L65.5,21.875L59.5,21.875ZM62.5,56.25C59.5,56.25 59.5,56.249 59.5,56.247C59.5,56.247 59.5,56.245 59.5,56.244C59.5,56.243 59.5,56.241 59.5,56.239C59.5,56.236 59.5,56.233 59.5,56.231C59.5,56.226 59.5,56.222 59.5,56.22C59.5,56.215 59.5,56.215 59.5,56.22C59.5,56.231 59.499,56.26 59.495,56.305C59.489,56.396 59.474,56.546 59.443,56.733C59.378,57.123 59.254,57.596 59.035,58.033C58.823,58.459 58.551,58.793 58.199,59.027C57.866,59.249 57.288,59.5 56.25,59.5L56.25,65.5C58.337,65.5 60.102,64.97 61.527,64.02C62.933,63.082 63.833,61.854 64.402,60.717C64.965,59.591 65.231,58.502 65.362,57.72C65.428,57.321 65.462,56.983 65.48,56.732C65.489,56.606 65.494,56.501 65.497,56.42C65.498,56.38 65.499,56.345 65.499,56.316C65.5,56.302 65.5,56.289 65.5,56.278C65.5,56.273 65.5,56.268 65.5,56.263C65.5,56.261 65.5,56.258 65.5,56.256C65.5,56.255 65.5,56.254 65.5,56.253C65.5,56.251 65.5,56.25 62.5,56.25ZM56.25,59.5L18.75,59.5L18.75,65.5L56.25,65.5L56.25,59.5ZM18.75,62.5C18.75,59.5 18.751,59.5 18.753,59.5C18.753,59.5 18.755,59.5 18.756,59.5C18.757,59.5 18.759,59.5 18.761,59.5C18.764,59.5 18.767,59.5 18.769,59.5C18.774,59.5 18.778,59.5 18.78,59.5C18.785,59.5 18.785,59.5 18.78,59.5C18.769,59.5 18.74,59.499 18.695,59.495C18.604,59.489 18.454,59.474 18.267,59.443C17.877,59.378 17.404,59.254 16.967,59.035C16.541,58.823 16.207,58.551 15.973,58.199C15.751,57.866 15.5,57.288 15.5,56.25L9.5,56.25C9.5,58.337 10.03,60.102 10.98,61.527C11.918,62.933 13.146,63.833 14.283,64.402C15.409,64.965 16.498,65.231 17.28,65.362C17.679,65.428 18.017,65.462 18.268,65.48C18.394,65.489 18.499,65.494 18.58,65.497C18.62,65.498 18.655,65.499 18.684,65.499C18.698,65.5 18.711,65.5 18.722,65.5C18.727,65.5 18.732,65.5 18.737,65.5C18.739,65.5 18.742,65.5 18.744,65.5C18.745,65.5 18.746,65.5 18.747,65.5C18.748,65.5 18.75,65.5 18.75,62.5ZM15.5,56.25L15.5,21.875L9.5,21.875L9.5,56.25L15.5,56.25ZM12.5,21.875C15.5,21.875 15.5,21.876 15.5,21.878C15.5,21.878 15.5,21.88 15.5,21.881C15.5,21.882 15.5,21.884 15.5,21.886C15.5,21.889 15.5,21.892 15.5,21.894C15.5,21.899 15.5,21.903 15.5,21.905C15.5,21.91 15.5,21.91 15.5,21.905C15.5,21.894 15.501,21.865 15.505,21.82C15.511,21.729 15.526,21.579 15.557,21.392C15.622,21.002 15.746,20.529 15.965,20.092C16.177,19.666 16.449,19.332 16.801,19.098C17.134,18.876 17.712,18.625 18.75,18.625L18.75,12.625C16.663,12.625 14.898,13.155 13.473,14.105C12.067,15.043 11.167,16.271 10.598,17.408C10.035,18.534 9.769,19.623 9.638,20.405C9.572,20.804 9.538,21.142 9.52,21.393C9.511,21.519 9.506,21.624 9.503,21.705C9.502,21.745 9.501,21.78 9.501,21.809C9.5,21.823 9.5,21.836 9.5,21.847C9.5,21.852 9.5,21.857 9.5,21.862C9.5,21.864 9.5,21.867 9.5,21.869C9.5,21.87 9.5,21.871 9.5,21.872C9.5,21.874 9.5,21.875 12.5,21.875Z" fill="#3DAE55"/>
<path d="M44.792,36.458L44.792,39.458C46.449,39.458 47.792,38.115 47.792,36.458L44.792,36.458ZM30.208,36.458L27.208,36.458C27.208,38.115 28.552,39.458 30.208,39.458L30.208,36.458ZM30.208,15.625L30.208,12.625C28.552,12.625 27.208,13.968 27.208,15.625L30.208,15.625ZM44.792,15.625L47.792,15.625C47.792,13.968 46.449,12.625 44.792,12.625L44.792,15.625ZM44.792,33.458L30.208,33.458L30.208,39.458L44.792,39.458L44.792,33.458ZM33.208,36.458L33.208,15.625L27.208,15.625L27.208,36.458L33.208,36.458ZM30.208,18.625L44.792,18.625L44.792,12.625L30.208,12.625L30.208,18.625ZM41.792,15.625L41.792,36.458L47.792,36.458L47.792,15.625L41.792,15.625Z" fill="#3DAE55"/>
</svg>
